# xmcd CD database file
#
# Track frame offsets:
#	182
#	30272
#	48327
#	67605
#	94670
#	117737
#	124615
#	166230
#	200200
#	224192
#	246637
#
# Disc length: 3492 seconds
#
# Revision: 0
# Processed by: cddbd v1.5.2PL0 Copyright (c) Steve Scherf et al.
# Submitted via: CDex 1.51
#
DISCID=a20da20b
DTITLE=Workdogs - Workdogs In Hell
DYEAR=1900
DGENRE=Blues
TTITLE0=Eulogy Regrets
TTITLE1=Little Boys With Big Guitars
TTITLE2=More Than An Apology
TTITLE3=970-DOGS
TTITLE4=Realm Of The Censors
TTITLE5=Solo #8
TTITLE6=Death Of The Workdogs
TTITLE7=The House That Drugs Built
TTITLE8=Kill 'em, Eat 'em, Fuck 'em
TTITLE9=(star)
TTITLE10=A Litany Of Complaints
EXTD=
EXTT0=
EXTT1=
EXTT2=
EXTT3=
EXTT4=
EXTT5=
EXTT6=
EXTT7=
EXTT8=
EXTT9=
EXTT10=
PLAYORDER=
